<svg width="108" height="86" viewBox="0 0 108 86" fill="none" xmlns="http://www.w3.org/2000/svg">
<path d="M60.1486 18.986L91.2176 63.0292C94.7317 68.0108 91.1498 74.8812 85.0535 74.8524L22.9563 74.5586C16.8838 74.5299 13.3612 67.6732 16.8742 62.7199L47.9024 18.9705C50.8964 14.7489 57.1653 14.7568 60.1486 18.986Z" fill="black" stroke="#F4F4F4"/>
<path d="M52.5867 13.986L83.6556 58.0292C87.1697 63.0108 83.5878 69.8812 77.4916 69.8524L15.3944 69.5586C9.32185 69.5299 5.79924 62.6732 9.31223 57.7199L40.3405 13.9705C43.3345 9.74891 49.6034 9.75685 52.5867 13.986Z" fill="black" stroke="#F4F4F4"/>
<path d="M35.778 42.1416C36.2181 42.1416 36.6498 42.1924 37.073 42.2939C37.5046 42.3955 37.9151 42.5479 38.3044 42.751C38.6937 42.9456 39.0365 43.208 39.3327 43.5381C39.6374 43.8682 39.8025 44.2617 39.8278 44.7188V45.252V49.3018C39.7771 49.8096 39.4978 50.0846 38.99 50.127C38.753 50.127 38.5456 50.0508 38.3679 49.8984C38.1986 49.7376 38.114 49.5387 38.114 49.3018V45.1123C38.0971 44.8499 37.9955 44.6341 37.8093 44.4648C37.6316 44.2871 37.4284 44.1475 37.1999 44.0459C36.9799 43.9443 36.7471 43.8682 36.5017 43.8174C36.2647 43.7666 36.0235 43.7412 35.778 43.7412C35.5326 43.7412 35.2872 43.7666 35.0417 43.8174C34.8047 43.8682 34.572 43.9443 34.3435 44.0459C34.1234 44.1475 33.9203 44.2871 33.7341 44.4648C33.5564 44.6341 33.459 44.8499 33.4421 45.1123V49.3018C33.3998 49.8096 33.1247 50.0846 32.6169 50.127C32.3799 50.127 32.1726 50.0508 31.9948 49.8984C31.8256 49.7376 31.7409 49.5387 31.7409 49.3018V45.252V44.7188C31.7663 44.2617 31.9271 43.8682 32.2234 43.5381C32.5196 43.208 32.8624 42.9456 33.2517 42.751C33.641 42.5479 34.0473 42.3955 34.4704 42.2939C34.9021 42.1924 35.3379 42.1416 35.778 42.1416ZM41.9409 49.124C41.9409 48.887 42.0213 48.6882 42.1821 48.5273C42.3513 48.3581 42.5545 48.2734 42.7914 48.2734H45.2289V44.1855H42.7914C42.5545 44.1855 42.3556 44.1009 42.1948 43.9316C42.0255 43.7708 41.9409 43.5719 41.9409 43.335C41.9409 43.098 42.0213 42.8991 42.1821 42.7383C42.3513 42.569 42.5545 42.4844 42.7914 42.4844H49.3676C49.6046 42.4844 49.8077 42.5648 49.977 42.7256C50.1378 42.8949 50.2182 43.098 50.2182 43.335C50.2182 43.5719 50.1336 43.7751 49.9643 43.9443C49.8035 44.1051 49.6046 44.1855 49.3676 44.1855H46.9428V48.2734H49.3676C49.6046 48.2734 49.8077 48.3538 49.977 48.5146C50.1378 48.6839 50.2182 48.887 50.2182 49.124C50.2182 49.361 50.1336 49.5641 49.9643 49.7334C49.8035 49.8942 49.6046 49.9746 49.3676 49.9746H42.7914C42.5545 49.9746 42.3556 49.89 42.1948 49.7207C42.0255 49.5599 41.9409 49.361 41.9409 49.124ZM55.8224 46.0518C55.5939 45.6201 55.3061 45.2096 54.9591 44.8203C54.6121 44.431 54.2778 44.2194 53.9562 44.1855H52.8898C52.6528 44.1855 52.4539 44.1009 52.2931 43.9316C52.1239 43.7708 52.0392 43.5719 52.0392 43.335C52.0392 43.098 52.1196 42.8991 52.2804 42.7383C52.4497 42.569 52.6528 42.4844 52.8898 42.4844H53.9562V42.4971H54.0832C54.6925 42.5309 55.3231 42.8737 55.9748 43.5254C56.2964 43.8555 56.5926 44.2279 56.8634 44.6426C57.1343 44.2279 57.4347 43.8555 57.7648 43.5254C58.408 42.8737 59.0343 42.5309 59.6437 42.4971H59.7707V42.4844H60.8371C61.074 42.4844 61.2729 42.569 61.4337 42.7383C61.603 42.8991 61.6877 43.098 61.6877 43.335C61.6877 43.5719 61.603 43.7708 61.4337 43.9316C61.2729 44.1009 61.074 44.1855 60.8371 44.1855H59.7707C59.449 44.2194 59.1147 44.431 58.7677 44.8203C58.4207 45.2096 58.133 45.6201 57.9044 46.0518C57.8537 46.1449 57.8029 46.2337 57.7521 46.3184C57.769 46.3438 57.786 46.3691 57.8029 46.3945C58.0314 46.8346 58.3192 47.2493 58.6662 47.6387C59.0132 48.028 59.3475 48.2354 59.6691 48.2607H60.7355C60.9725 48.2607 61.1714 48.3454 61.3322 48.5146C61.5015 48.6755 61.5861 48.8743 61.5861 49.1113C61.5861 49.3483 61.5015 49.5514 61.3322 49.7207C61.1714 49.8815 60.9725 49.9619 60.7355 49.9619H59.5421C58.9328 49.9281 58.3065 49.5895 57.6632 48.9463C57.3755 48.6501 57.1089 48.3285 56.8634 47.9814C56.618 48.3285 56.3514 48.6501 56.0636 48.9463C55.4204 49.5895 54.7941 49.9281 54.1847 49.9619H52.9914C52.7544 49.9619 52.5513 49.8815 52.382 49.7207C52.2212 49.5514 52.1408 49.3483 52.1408 49.1113C52.1408 48.8743 52.2254 48.6755 52.3947 48.5146C52.5555 48.3454 52.7544 48.2607 52.9914 48.2607H54.0578C54.3794 48.2354 54.7137 48.028 55.0607 47.6387C55.4077 47.2493 55.6955 46.8346 55.924 46.3945C55.9409 46.3691 55.9578 46.3438 55.9748 46.3184C55.924 46.2337 55.8732 46.1449 55.8224 46.0518Z" fill="#F4F4F4"/>
</svg>
