<svg width="319" height="86" viewBox="0 0 319 86" fill="none" xmlns="http://www.w3.org/2000/svg">
<g clip-path="url(#clip0_2_123)">
<rect width="319" height="86" rx="3" fill="#E9E9E9"/>
<g filter="url(#filter0_f_2_123)">
<ellipse cx="23.5" cy="99.5" rx="80.5" ry="78.5" fill="#FF5CF4"/>
</g>
<g filter="url(#filter1_f_2_123)">
<ellipse cx="319.5" cy="-9.5" rx="80.5" ry="78.5" fill="#FF5CF4"/>
</g>
<path d="M102.041 33.543C102.041 32.8867 102.264 32.3359 102.709 31.8906C103.178 31.4219 103.74 31.1875 104.397 31.1875H124.858C125.514 31.1875 126.076 31.4102 126.545 31.8555C126.99 32.3242 127.213 32.8867 127.213 33.543C127.213 34.1992 126.979 34.7617 126.51 35.2305C126.065 35.6758 125.514 35.8984 124.858 35.8984H117.018V50.1367C116.877 51.543 116.104 52.3047 114.697 52.4219C114.041 52.4219 113.467 52.2109 112.975 51.7891C112.506 51.3438 112.272 50.793 112.272 50.1367V35.8984H104.397C103.74 35.8984 103.19 35.6641 102.744 35.1953C102.276 34.75 102.041 34.1992 102.041 33.543ZM152.717 50.0664V41.5938C152.717 41.0078 152.412 40.7031 151.803 40.6797H139.498C139.053 40.7031 138.666 40.9023 138.338 41.2773C138.01 41.6289 137.764 42.0508 137.6 42.543C137.459 43.0117 137.389 43.4922 137.389 43.9844C137.389 44.4531 137.459 44.9336 137.6 45.4258C137.764 45.8945 138.01 46.3164 138.338 46.6914C138.666 47.043 139.053 47.2188 139.498 47.2188H148.498C149.154 47.2188 149.705 47.4531 150.15 47.9219C150.619 48.3672 150.854 48.918 150.854 49.5742C150.854 50.2305 150.619 50.7812 150.15 51.2266C149.705 51.6953 149.154 51.9297 148.498 51.9297H139.639C137.998 51.9062 136.639 51.4492 135.561 50.5586C134.506 49.6445 133.744 48.625 133.275 47.5C132.83 46.3516 132.607 45.168 132.607 43.9492C132.607 42.7773 132.842 41.6289 133.311 40.5039C133.779 39.3555 134.541 38.3359 135.596 37.4453C136.65 36.5312 138.209 36.0391 140.272 35.9688H155.037C155.693 35.9688 156.256 36.1914 156.725 36.6367C157.193 37.0586 157.44 37.5977 157.463 38.2539V50.0664C157.463 50.7227 157.217 51.2734 156.725 51.7188C156.256 52.1406 155.693 52.3516 155.037 52.3516C153.631 52.2344 152.857 51.4727 152.717 50.0664ZM186.482 38.0078C186.482 38.5938 186.248 39.0859 185.779 39.4844C185.334 39.8594 184.783 40.0469 184.127 40.0469H169.256C168.951 40.0469 168.705 40.1055 168.517 40.2227C168.33 40.3398 168.189 40.4688 168.096 40.6094C168.002 40.7266 167.955 40.832 167.955 40.9258C167.955 41.043 168.002 41.1719 168.096 41.3125C168.189 41.4297 168.33 41.5469 168.517 41.6641C168.705 41.7578 168.951 41.8164 169.256 41.8398H180.752C182.228 41.8633 183.447 42.1562 184.408 42.7188C185.369 43.2578 186.049 43.9023 186.447 44.6523C186.869 45.3789 187.08 46.1172 187.08 46.8672C187.08 47.5938 186.869 48.332 186.447 49.082C186.025 49.8086 185.334 50.4531 184.373 51.0156C183.435 51.5547 182.228 51.8242 180.752 51.8242C180.494 51.8477 180.307 51.8594 180.189 51.8594H166.549C165.892 51.8594 165.33 51.6719 164.861 51.2969C164.416 50.8984 164.193 50.418 164.193 49.8555C164.193 49.2695 164.428 48.7773 164.896 48.3789C165.342 48.0039 165.892 47.8164 166.549 47.8164H181.033C181.385 47.8398 181.666 47.793 181.877 47.6758C182.111 47.5586 182.287 47.4297 182.404 47.2891C182.521 47.1484 182.58 47.0078 182.58 46.8672C182.58 46.7969 182.521 46.6797 182.404 46.5156C182.287 46.3281 182.111 46.1875 181.877 46.0938C181.666 45.9766 181.385 45.9062 181.033 45.8828H169.502C168.142 45.8594 167.017 45.5781 166.127 45.0391C165.236 44.4766 164.603 43.832 164.228 43.1055C163.853 42.3789 163.666 41.6523 163.666 40.9258C163.666 40.1992 163.853 39.4844 164.228 38.7812C164.627 38.0547 165.26 37.4336 166.127 36.918C167.017 36.3789 168.142 36.0859 169.502 36.0391C169.736 36.0156 169.912 36.0039 170.029 36.0039H184.127C184.783 36.0039 185.334 36.2031 185.779 36.6016C186.248 36.9766 186.482 37.4453 186.482 38.0078ZM195.568 30.625C196.201 30.6484 196.74 30.8828 197.185 31.3281C197.631 31.75 197.865 32.2773 197.888 32.9102V50.1367C197.748 51.543 196.974 52.3047 195.568 52.4219C194.912 52.4219 194.338 52.2109 193.845 51.7891C193.377 51.3438 193.142 50.793 193.142 50.1367V32.9102C193.166 32.2539 193.412 31.7148 193.881 31.293C194.349 30.8477 194.912 30.625 195.568 30.625ZM200.033 40.4336C200.713 39.332 202.013 38.5234 203.935 38.0078L212.97 35.582C213.603 35.3945 214.201 35.4531 214.763 35.7578C215.349 36.0391 215.736 36.4961 215.924 37.1289C216.135 37.7383 216.088 38.3359 215.783 38.9219C215.502 39.4844 215.045 39.8711 214.412 40.082L204.779 42.5781C204.099 42.8359 203.771 43.2812 203.795 43.9141C203.771 44.5469 204.099 44.9922 204.779 45.25L214.412 47.7461C215.045 47.957 215.502 48.3555 215.783 48.9414C216.088 49.5039 216.135 50.0898 215.924 50.6992C215.736 51.332 215.349 51.7891 214.763 52.0703C214.201 52.375 213.603 52.4336 212.97 52.2461L203.935 49.8203C201.99 49.2812 200.678 48.4609 199.998 47.3594C199.342 46.2578 199.013 45.1094 199.013 43.9141C199.013 42.7188 199.353 41.5586 200.033 40.4336Z" fill="#020202"/>
<path d="M4 86C7.96784 84.9556 17.7667 80.1511 25.2193 69.2889C34.5351 55.7111 62.4825 69.2889 74.9035 33.7778C84.8404 5.36889 110.442 -5.91111 122 -8" stroke="#E7E7E7"/>
<path d="M8 89C11.9678 87.9556 21.7667 83.1511 29.2193 72.2889C38.5351 58.7111 66.4825 72.2889 78.9035 36.7778C88.8404 8.36889 114.442 -2.91111 126 -5" stroke="#E7E7E7"/>
<path d="M11 93C14.9678 91.9556 24.7667 87.1511 32.2193 76.2889C41.5351 62.7111 69.4825 76.2889 81.9035 40.7778C91.8404 12.3689 117.442 1.08889 129 -1" stroke="#E7E7E7"/>
<path d="M315 86C311.032 84.9556 301.233 80.1511 293.781 69.2889C284.465 55.7111 256.518 69.2889 244.096 33.7778C234.16 5.36889 208.558 -5.91111 197 -8" stroke="#E7E7E7"/>
<path d="M311 89C307.032 87.9556 297.233 83.1511 289.781 72.2889C280.465 58.7111 252.518 72.2889 240.096 36.7778C230.16 8.36889 204.558 -2.91111 193 -5" stroke="#E7E7E7"/>
<path d="M308 93C304.032 91.9556 294.233 87.1511 286.781 76.2889C277.465 62.7111 249.518 76.2889 237.096 40.7778C227.16 12.3689 201.558 1.08889 190 -1" stroke="#E7E7E7"/>
</g>
<defs>
<filter id="filter0_f_2_123" x="-145.1" y="-67.1" width="337.2" height="333.2" filterUnits="userSpaceOnUse" color-interpolation-filters="sRGB">
<feFlood flood-opacity="0" result="BackgroundImageFix"/>
<feBlend mode="normal" in="SourceGraphic" in2="BackgroundImageFix" result="shape"/>
<feGaussianBlur stdDeviation="44.05" result="effect1_foregroundBlur_2_123"/>
</filter>
<filter id="filter1_f_2_123" x="151.7" y="-175.3" width="335.6" height="331.6" filterUnits="userSpaceOnUse" color-interpolation-filters="sRGB">
<feFlood flood-opacity="0" result="BackgroundImageFix"/>
<feBlend mode="normal" in="SourceGraphic" in2="BackgroundImageFix" result="shape"/>
<feGaussianBlur stdDeviation="43.65" result="effect1_foregroundBlur_2_123"/>
</filter>
<clipPath id="clip0_2_123">
<rect width="319" height="86" rx="3" fill="white"/>
</clipPath>
</defs>
</svg>
