<svg width="319" height="86" viewBox="0 0 319 86" fill="none" xmlns="http://www.w3.org/2000/svg">
<g clip-path="url(#clip0_2_88)">
<rect width="319" height="86" rx="3" fill="#E9E9E9"/>
<g filter="url(#filter0_f_2_88)">
<ellipse cx="80.5" cy="78.5" rx="80.5" ry="78.5" transform="matrix(-1 0 0 1 400 21)" fill="#61EAFF"/>
</g>
<g filter="url(#filter1_f_2_88)">
<ellipse cx="80.5" cy="78.5" rx="80.5" ry="78.5" transform="matrix(-1 0 0 1 104 -88)" fill="#61EAFF"/>
</g>
<path d="M18.2896 26.2094C19.6009 22.1837 24.7784 21.0871 27.6091 24.2356L70.5702 72.0183C73.4009 75.1668 71.7618 80.1989 67.6198 81.0762L4.75817 94.3902C0.616155 95.2674 -2.92227 91.3319 -1.611 87.3061L18.2896 26.2094Z" stroke="white"/>
<path d="M240.348 82.8434C236.551 80.9707 236.205 75.6897 239.725 73.3375L306.271 28.874C309.792 26.5218 314.538 28.8626 314.815 33.0875L320.048 112.95C320.325 117.175 315.925 120.115 312.127 118.242L240.348 82.8434Z" stroke="white"/>
<path d="M73.5844 36.8984C72.6938 36.9453 71.9438 37.2852 71.3344 37.918C70.7485 38.5508 70.3266 39.2773 70.0688 40.0977C69.811 40.8945 69.6821 41.7148 69.6821 42.5586C69.6821 43.4023 69.7993 44.2344 70.0337 45.0547C70.2915 45.875 70.7251 46.6016 71.3344 47.2344C71.9438 47.8438 72.6938 48.1719 73.5844 48.2188H85.186C86.6626 48.3594 87.4712 49.168 87.6118 50.6445C87.5884 51.3008 87.3423 51.8516 86.8735 52.2969C86.4048 52.7188 85.8423 52.9297 85.186 52.9297H73.9712H72.354C70.7134 52.8359 69.3657 52.2148 68.311 51.0664C67.2563 49.8945 66.4946 48.5703 66.0259 47.0938C65.5805 45.6172 65.3579 44.1055 65.3579 42.5586C65.3579 41.4102 65.4868 40.2734 65.7446 39.1484C66.0024 38.0234 66.4009 36.957 66.9399 35.9492C67.5024 34.918 68.2407 34.0391 69.1548 33.3125C70.0923 32.5859 71.1587 32.2109 72.354 32.1875H73.0219H85.186C86.6626 32.3281 87.4712 33.1367 87.6118 34.6133C87.6118 35.2695 87.3657 35.8203 86.8735 36.2656C86.4048 36.6875 85.8423 36.8984 85.186 36.8984H73.5844ZM95.4319 31.625C96.0648 31.6484 96.6038 31.8828 97.0491 32.3281C97.4944 32.75 97.7288 33.2773 97.7523 33.9102V36.9688H108.651C110.291 36.9922 111.639 37.4609 112.694 38.375C113.772 39.2656 114.534 40.2734 114.979 41.3984C115.448 42.5469 115.682 43.7305 115.682 44.9492H115.717V51.0664C115.717 51.7227 115.471 52.2734 114.979 52.7188C114.51 53.1406 113.948 53.3516 113.291 53.3516C111.885 53.2344 111.112 52.4727 110.971 51.0664V44.9141C110.971 44.4688 110.877 44 110.69 43.5078C110.526 43.0156 110.28 42.5938 109.951 42.2422C109.623 41.8672 109.237 41.6797 108.791 41.6797H97.7523V51.1367C97.6116 52.543 96.8382 53.3047 95.4319 53.4219C94.7757 53.4219 94.2015 53.2109 93.7093 52.7891C93.2405 52.3438 93.0062 51.793 93.0062 51.1367V33.9102C93.0296 33.2539 93.2757 32.7148 93.7444 32.293C94.2132 31.8477 94.7757 31.625 95.4319 31.625ZM141.959 51.0664V42.5938C141.959 42.0078 141.654 41.7031 141.045 41.6797H128.74C128.295 41.7031 127.908 41.9023 127.58 42.2773C127.252 42.6289 127.006 43.0508 126.842 43.543C126.701 44.0117 126.631 44.4922 126.631 44.9844C126.631 45.4531 126.701 45.9336 126.842 46.4258C127.006 46.8945 127.252 47.3164 127.58 47.6914C127.908 48.043 128.295 48.2188 128.74 48.2188H137.74C138.397 48.2188 138.947 48.4531 139.393 48.9219C139.861 49.3672 140.096 49.918 140.096 50.5742C140.096 51.2305 139.861 51.7812 139.393 52.2266C138.947 52.6953 138.397 52.9297 137.74 52.9297H128.881C127.24 52.9062 125.881 52.4492 124.803 51.5586C123.748 50.6445 122.986 49.625 122.518 48.5C122.072 47.3516 121.85 46.168 121.85 44.9492C121.85 43.7773 122.084 42.6289 122.553 41.5039C123.022 40.3555 123.783 39.3359 124.838 38.4453C125.893 37.5312 127.451 37.0391 129.514 36.9688H144.279C144.936 36.9688 145.498 37.1914 145.967 37.6367C146.436 38.0586 146.682 38.5977 146.705 39.2539V51.0664C146.705 51.7227 146.459 52.2734 145.967 52.7188C145.498 53.1406 144.936 53.3516 144.279 53.3516C142.873 53.2344 142.1 52.4727 141.959 51.0664ZM161.029 31.625C161.686 31.625 162.248 31.8477 162.717 32.293C163.186 32.7148 163.432 33.2539 163.455 33.9102V36.9688H175.408C176.064 36.9688 176.627 37.1914 177.096 37.6367C177.541 38.1055 177.764 38.668 177.764 39.3242C177.764 39.9805 177.529 40.543 177.061 41.0117C176.615 41.457 176.064 41.6797 175.408 41.6797H163.455V42.3828C163.432 43.3438 163.49 44.2344 163.631 45.0547C163.795 45.8516 164.17 46.5664 164.756 47.1992C165.342 47.832 166.08 48.1719 166.971 48.2188H175.549C176.205 48.2422 176.744 48.4883 177.166 48.957C177.611 49.4258 177.834 49.9883 177.834 50.6445C177.811 51.2773 177.576 51.8164 177.131 52.2617C176.709 52.6836 176.182 52.9062 175.549 52.9297H165.775C164.135 52.8359 162.775 52.2852 161.697 51.2773C160.643 50.2461 159.881 48.9922 159.412 47.5156C158.967 46.0391 158.732 44.4688 158.709 42.8047V41.6797H154.666C154.01 41.6797 153.459 41.4453 153.014 40.9766C152.545 40.5312 152.311 39.9805 152.311 39.3242C152.311 38.668 152.533 38.1172 152.979 37.6719C153.447 37.2031 154.01 36.9688 154.666 36.9688H158.709V33.9102C158.732 33.2773 158.967 32.75 159.412 32.3281C159.857 31.8828 160.396 31.6484 161.029 31.625ZM211.439 47.4805C211.439 46.8242 211.662 46.2734 212.107 45.8281C212.576 45.3594 213.138 45.125 213.795 45.125H219.174L218.259 42.5234C217.884 41.5625 217.509 40.6602 217.134 39.8164C216.783 38.9492 216.373 38.1641 215.904 37.4609C215.482 36.7578 215.002 36.3828 214.463 36.3359C213.9 36.3828 213.396 36.7578 212.951 37.4609C212.506 38.1641 212.095 38.9492 211.72 39.8164C211.369 40.6602 211.006 41.5625 210.631 42.5234L207.291 51.6641C207.056 52.1562 206.752 52.5664 206.377 52.8945C206.025 53.1992 205.486 53.3516 204.759 53.3516C204.08 53.3516 203.517 53.1172 203.072 52.6484C202.65 52.1797 202.463 51.6172 202.509 50.9609C202.533 50.6562 202.603 50.375 202.72 50.1172L206.588 40.1328C207.666 37.5078 208.744 35.3867 209.822 33.7695C210.877 32.1758 212.424 31.3672 214.463 31.3438C216.478 31.3672 218.013 32.1758 219.068 33.7695C220.146 35.3398 221.224 37.4609 222.302 40.1328L226.17 50.1172C226.287 50.375 226.357 50.6562 226.381 50.9609C226.427 51.6172 226.228 52.1797 225.783 52.6484C225.361 53.1172 224.81 53.3516 224.131 53.3516C223.357 53.3516 222.783 53.1992 222.408 52.8945C222.056 52.5664 221.763 52.1562 221.529 51.6641L220.861 49.8359H213.795C213.138 49.8359 212.588 49.6016 212.142 49.1328C211.674 48.6875 211.439 48.1367 211.439 47.4805ZM231.318 50.5742C231.318 49.918 231.541 49.3672 231.986 48.9219C232.455 48.4531 233.017 48.2188 233.673 48.2188H240.423V36.8984H233.673C233.017 36.8984 232.466 36.6641 232.021 36.1953C231.552 35.75 231.318 35.1992 231.318 34.543C231.318 33.8867 231.541 33.3359 231.986 32.8906C232.455 32.4219 233.017 32.1875 233.673 32.1875H251.884C252.541 32.1875 253.103 32.4102 253.572 32.8555C254.017 33.3242 254.24 33.8867 254.24 34.543C254.24 35.1992 254.005 35.7617 253.537 36.2305C253.091 36.6758 252.541 36.8984 251.884 36.8984H245.169V48.2188H251.884C252.541 48.2188 253.103 48.4414 253.572 48.8867C254.017 49.3555 254.24 49.918 254.24 50.5742C254.24 51.2305 254.005 51.793 253.537 52.2617C253.091 52.707 252.541 52.9297 251.884 52.9297H233.673C233.017 52.9297 232.466 52.6953 232.021 52.2266C231.552 51.7812 231.318 51.2305 231.318 50.5742Z" fill="#020202"/>
</g>
<defs>
<filter id="filter0_f_2_88" x="150.9" y="-67.1" width="337.2" height="333.2" filterUnits="userSpaceOnUse" color-interpolation-filters="sRGB">
<feFlood flood-opacity="0" result="BackgroundImageFix"/>
<feBlend mode="normal" in="SourceGraphic" in2="BackgroundImageFix" result="shape"/>
<feGaussianBlur stdDeviation="44.05" result="effect1_foregroundBlur_2_88"/>
</filter>
<filter id="filter1_f_2_88" x="-144.3" y="-175.3" width="335.6" height="331.6" filterUnits="userSpaceOnUse" color-interpolation-filters="sRGB">
<feFlood flood-opacity="0" result="BackgroundImageFix"/>
<feBlend mode="normal" in="SourceGraphic" in2="BackgroundImageFix" result="shape"/>
<feGaussianBlur stdDeviation="43.65" result="effect1_foregroundBlur_2_88"/>
</filter>
<clipPath id="clip0_2_88">
<rect width="319" height="86" rx="3" fill="white"/>
</clipPath>
</defs>
</svg>
